<svg 
  id="eqybQlWZBkA1" xmlns="http://www.w3.org/2000/svg" 
  xmlns:xlink="http://www.w3.org/1999/xlink" 
  viewBox="0 0 300 300" shape-rendering="geometricPrecision" 
  text-rendering="geometricPrecision"
  >
    <ellipse rx="150" ry="150" transform="translate(150 150)" fill="#044e51" stroke-width="0"/>
    <rect width="36.55706" height="22.630561" rx="0" ry="0" transform="translate(81.237911 60.89942)" fill="#d2dbed" stroke-width="0"/>
    <rect width="36.55706" height="143.907157" rx="0" ry="0" transform="translate(81.237911 105.000001)" fill="#d2dbed" stroke-width="0"/>
    <rect width="103.889628" height="110.740096" rx="0" ry="0" transform="translate(154.067436 105.000001)" fill="#d2dbed" stroke-width="0"/>
    <ellipse rx="51.944814" ry="35.976789" transform="translate(206.01225 212.930369)" fill="#d2dbed" stroke-width="0"/>
    <rect width="42.185486" height="102.554853" rx="0" ry="0" transform="matrix(.791043 0 0 1.159627 188.697349 96.814739)" fill="#054e50" stroke-width="0"/>
    <rect width="30" height="30" rx="0" ry="0" transform="translate(233.401334 380.074599)" fill="#d2dbed" stroke-width="0"/>
    <polygon points="0,-14.568071 13.855059,-4.501782 8.562897,11.785817 -8.562897,11.785817 -13.855059,-4.501782 0,-14.568071" transform="matrix(-.822249 1.018085-.67118-.542074 224.685334 214.986003)" fill="#d2dbed" stroke-width="0"/>
    <polygon points="0,-23.792242 22.627767,-7.352207 13.984729,19.248328 -13.984729,19.248328 -22.627767,-7.352207 0,-23.792242" transform="matrix(-.409695 0.258912-.534225-.845342 186.360066 214.813418)" fill="#d2dbed" stroke-width="0"/>
    <ellipse rx="16.133949" ry="12.340444" transform="matrix(1.034171 0 0 1.778219 205.382616 198.541989)" fill="#044e51" stroke-width="0"/>
</svg>